<mxfile host="www.draw.io" modified="2019-12-24T13:40:53.818Z" agent="Mozilla/5.0 (Windows NT 10.0; Win64; x64; rv:71.0) Gecko/20100101 Firefox/71.0" etag="VldD8WZUU9NceKyjmnR-" version="12.4.3" type="github" pages="1">
  <diagram id="remxI2PfJhXLlpOWQ3zB" name="Page-1">
    <mxGraphModel dx="868" dy="479" grid="1" gridSize="10" guides="1" tooltips="1" connect="1" arrows="1" fold="1" page="1" pageScale="1" pageWidth="850" pageHeight="1100" math="0" shadow="0">
      <root>
        <mxCell id="0"/>
        <mxCell id="1" parent="0"/>
        <mxCell id="PiVstQs3s-ZHOOb9sB3l-1" value="" style="outlineConnect=0;fontColor=#232F3E;gradientColor=none;fillColor=#232F3E;strokeColor=none;dashed=0;verticalLabelPosition=bottom;verticalAlign=top;align=center;html=1;fontSize=12;fontStyle=0;aspect=fixed;pointerEvents=1;shape=mxgraph.aws4.traditional_server;" parent="1" vertex="1">
          <mxGeometry x="210" y="110" width="45" height="78" as="geometry"/>
        </mxCell>
        <mxCell id="PiVstQs3s-ZHOOb9sB3l-2" value="" style="outlineConnect=0;fontColor=#232F3E;gradientColor=none;fillColor=#232F3E;strokeColor=none;dashed=0;verticalLabelPosition=bottom;verticalAlign=top;align=center;html=1;fontSize=12;fontStyle=0;aspect=fixed;pointerEvents=1;shape=mxgraph.aws4.traditional_server;" parent="1" vertex="1">
          <mxGeometry x="670" y="20" width="45" height="78" as="geometry"/>
        </mxCell>
        <mxCell id="PiVstQs3s-ZHOOb9sB3l-3" value="" style="outlineConnect=0;fontColor=#232F3E;gradientColor=none;fillColor=#232F3E;strokeColor=none;dashed=0;verticalLabelPosition=bottom;verticalAlign=top;align=center;html=1;fontSize=12;fontStyle=0;aspect=fixed;pointerEvents=1;shape=mxgraph.aws4.traditional_server;" parent="1" vertex="1">
          <mxGeometry x="510" y="320" width="45" height="78" as="geometry"/>
        </mxCell>
        <mxCell id="PiVstQs3s-ZHOOb9sB3l-4" value="&lt;div&gt;USA&lt;br&gt;&lt;/div&gt;&lt;div&gt;Windows Server 2016 &lt;br&gt;&lt;/div&gt;&lt;div&gt;for AD, DHCP, DNS services&lt;br&gt;&lt;/div&gt;" style="text;html=1;strokeColor=none;fillColor=none;align=center;verticalAlign=middle;whiteSpace=wrap;rounded=0;" parent="1" vertex="1">
          <mxGeometry x="188.75" y="170" width="87.5" height="130" as="geometry"/>
        </mxCell>
        <mxCell id="PiVstQs3s-ZHOOb9sB3l-5" value="&lt;div&gt;India&lt;br&gt;&lt;/div&gt;&lt;div&gt;Windows Server 2016 &lt;br&gt;&lt;/div&gt;&lt;div&gt;for AD, DHCP, DNS services&lt;br&gt;&lt;/div&gt;" style="text;html=1;strokeColor=none;fillColor=none;align=center;verticalAlign=middle;whiteSpace=wrap;rounded=0;" parent="1" vertex="1">
          <mxGeometry x="648.75" y="84" width="87.5" height="130" as="geometry"/>
        </mxCell>
        <mxCell id="PiVstQs3s-ZHOOb9sB3l-6" value="&lt;div align=&quot;left&quot;&gt;Sri Lanka&lt;br&gt;&lt;/div&gt;&lt;div align=&quot;left&quot;&gt;Windows Server 2016 &lt;br&gt;&lt;/div&gt;&lt;div align=&quot;left&quot;&gt;for AD, DHCP, DNS services&lt;br&gt;&lt;/div&gt;" style="text;html=1;strokeColor=none;fillColor=none;align=left;verticalAlign=middle;whiteSpace=wrap;rounded=0;" parent="1" vertex="1">
          <mxGeometry x="560" y="290" width="148.75" height="130" as="geometry"/>
        </mxCell>
        <mxCell id="PiVstQs3s-ZHOOb9sB3l-7" value="" style="endArrow=classic;startArrow=classic;html=1;" parent="1" source="PiVstQs3s-ZHOOb9sB3l-1" target="PiVstQs3s-ZHOOb9sB3l-2" edge="1">
          <mxGeometry width="50" height="50" relative="1" as="geometry">
            <mxPoint x="380" y="180" as="sourcePoint"/>
            <mxPoint x="430" y="130" as="targetPoint"/>
          </mxGeometry>
        </mxCell>
        <mxCell id="PiVstQs3s-ZHOOb9sB3l-8" value="" style="endArrow=classic;startArrow=classic;html=1;" parent="1" source="PiVstQs3s-ZHOOb9sB3l-1" target="PiVstQs3s-ZHOOb9sB3l-3" edge="1">
          <mxGeometry width="50" height="50" relative="1" as="geometry">
            <mxPoint x="410" y="270" as="sourcePoint"/>
            <mxPoint x="460" y="220" as="targetPoint"/>
          </mxGeometry>
        </mxCell>
        <mxCell id="PiVstQs3s-ZHOOb9sB3l-9" value="" style="endArrow=classic;startArrow=classic;html=1;" parent="1" source="PiVstQs3s-ZHOOb9sB3l-3" target="PiVstQs3s-ZHOOb9sB3l-2" edge="1">
          <mxGeometry width="50" height="50" relative="1" as="geometry">
            <mxPoint x="560" y="340" as="sourcePoint"/>
            <mxPoint x="540" y="220" as="targetPoint"/>
          </mxGeometry>
        </mxCell>
        <mxCell id="PiVstQs3s-ZHOOb9sB3l-10" value="" style="points=[];aspect=fixed;html=1;align=center;shadow=0;dashed=0;image;image=img/lib/allied_telesis/computer_and_terminals/Personal_Computer_with_Server.svg;" parent="1" vertex="1">
          <mxGeometry x="40" y="60" width="62.400000000000006" height="62.400000000000006" as="geometry"/>
        </mxCell>
        <mxCell id="PiVstQs3s-ZHOOb9sB3l-11" value="" style="points=[];aspect=fixed;html=1;align=center;shadow=0;dashed=0;image;image=img/lib/allied_telesis/computer_and_terminals/Personal_Computer_with_Server.svg;" parent="1" vertex="1">
          <mxGeometry x="40" y="151.6" width="62.400000000000006" height="62.400000000000006" as="geometry"/>
        </mxCell>
        <mxCell id="PiVstQs3s-ZHOOb9sB3l-14" value="" style="endArrow=classic;startArrow=classic;html=1;" parent="1" source="PiVstQs3s-ZHOOb9sB3l-10" target="PiVstQs3s-ZHOOb9sB3l-1" edge="1">
          <mxGeometry width="50" height="50" relative="1" as="geometry">
            <mxPoint x="130" y="150" as="sourcePoint"/>
            <mxPoint x="180" y="100" as="targetPoint"/>
          </mxGeometry>
        </mxCell>
        <mxCell id="PiVstQs3s-ZHOOb9sB3l-15" value="" style="endArrow=classic;startArrow=classic;html=1;" parent="1" source="PiVstQs3s-ZHOOb9sB3l-11" target="PiVstQs3s-ZHOOb9sB3l-1" edge="1">
          <mxGeometry width="50" height="50" relative="1" as="geometry">
            <mxPoint x="112.39999999999998" y="112.38016119032864" as="sourcePoint"/>
            <mxPoint x="190" y="151" as="targetPoint"/>
          </mxGeometry>
        </mxCell>
        <mxCell id="PiVstQs3s-ZHOOb9sB3l-16" value="" style="endArrow=classic;startArrow=classic;html=1;entryX=0.25;entryY=0;entryDx=0;entryDy=0;" parent="1" source="PiVstQs3s-ZHOOb9sB3l-12" target="PiVstQs3s-ZHOOb9sB3l-4" edge="1">
          <mxGeometry width="50" height="50" relative="1" as="geometry">
            <mxPoint x="112.39999999999998" y="186.2621202727837" as="sourcePoint"/>
            <mxPoint x="220" y="163.7148171109734" as="targetPoint"/>
          </mxGeometry>
        </mxCell>
        <mxCell id="PiVstQs3s-ZHOOb9sB3l-18" value="" style="shape=link;html=1;" parent="1" source="PiVstQs3s-ZHOOb9sB3l-1" target="PiVstQs3s-ZHOOb9sB3l-2" edge="1">
          <mxGeometry width="50" height="50" relative="1" as="geometry">
            <mxPoint x="390" y="160" as="sourcePoint"/>
            <mxPoint x="440" y="110" as="targetPoint"/>
          </mxGeometry>
        </mxCell>
        <mxCell id="PiVstQs3s-ZHOOb9sB3l-19" value="" style="shape=link;html=1;" parent="1" source="PiVstQs3s-ZHOOb9sB3l-3" edge="1">
          <mxGeometry width="50" height="50" relative="1" as="geometry">
            <mxPoint x="380" y="240" as="sourcePoint"/>
            <mxPoint x="671" y="100" as="targetPoint"/>
          </mxGeometry>
        </mxCell>
        <mxCell id="PiVstQs3s-ZHOOb9sB3l-20" value="" style="shape=link;html=1;" parent="1" source="PiVstQs3s-ZHOOb9sB3l-1" target="PiVstQs3s-ZHOOb9sB3l-3" edge="1">
          <mxGeometry width="50" height="50" relative="1" as="geometry">
            <mxPoint x="340" y="440" as="sourcePoint"/>
            <mxPoint x="390" y="390" as="targetPoint"/>
          </mxGeometry>
        </mxCell>
        <mxCell id="PiVstQs3s-ZHOOb9sB3l-21" value="" style="endArrow=none;dashed=1;html=1;" parent="1" source="PiVstQs3s-ZHOOb9sB3l-12" edge="1">
          <mxGeometry width="50" height="50" relative="1" as="geometry">
            <mxPoint x="80" y="350" as="sourcePoint"/>
            <mxPoint x="80" y="310" as="targetPoint"/>
          </mxGeometry>
        </mxCell>
        <mxCell id="PiVstQs3s-ZHOOb9sB3l-23" value="" style="points=[];aspect=fixed;html=1;align=center;shadow=0;dashed=0;image;image=img/lib/allied_telesis/computer_and_terminals/Personal_Computer_with_Server.svg;" parent="1" vertex="1">
          <mxGeometry x="770" y="10" width="62.400000000000006" height="62.400000000000006" as="geometry"/>
        </mxCell>
        <mxCell id="PiVstQs3s-ZHOOb9sB3l-24" value="" style="points=[];aspect=fixed;html=1;align=center;shadow=0;dashed=0;image;image=img/lib/allied_telesis/computer_and_terminals/Personal_Computer_with_Server.svg;" parent="1" vertex="1">
          <mxGeometry x="770" y="89.2" width="62.400000000000006" height="62.400000000000006" as="geometry"/>
        </mxCell>
        <mxCell id="PiVstQs3s-ZHOOb9sB3l-25" value="" style="points=[];aspect=fixed;html=1;align=center;shadow=0;dashed=0;image;image=img/lib/allied_telesis/computer_and_terminals/Personal_Computer_with_Server.svg;" parent="1" vertex="1">
          <mxGeometry x="770" y="214" width="62.400000000000006" height="62.400000000000006" as="geometry"/>
        </mxCell>
        <mxCell id="PiVstQs3s-ZHOOb9sB3l-12" value="" style="points=[];aspect=fixed;html=1;align=center;shadow=0;dashed=0;image;image=img/lib/allied_telesis/computer_and_terminals/Personal_Computer_with_Server.svg;fontStyle=1" parent="1" vertex="1">
          <mxGeometry x="40" y="280" width="62.400000000000006" height="62.400000000000006" as="geometry"/>
        </mxCell>
        <mxCell id="PiVstQs3s-ZHOOb9sB3l-27" value="" style="endArrow=classic;startArrow=classic;html=1;" parent="1" target="PiVstQs3s-ZHOOb9sB3l-23" edge="1">
          <mxGeometry width="50" height="50" relative="1" as="geometry">
            <mxPoint x="715" y="40" as="sourcePoint"/>
            <mxPoint x="765" y="-10" as="targetPoint"/>
          </mxGeometry>
        </mxCell>
        <mxCell id="PiVstQs3s-ZHOOb9sB3l-28" value="" style="endArrow=classic;startArrow=classic;html=1;" parent="1" source="PiVstQs3s-ZHOOb9sB3l-2" target="PiVstQs3s-ZHOOb9sB3l-24" edge="1">
          <mxGeometry width="50" height="50" relative="1" as="geometry">
            <mxPoint x="725" y="50" as="sourcePoint"/>
            <mxPoint x="780" y="50.76566125290026" as="targetPoint"/>
          </mxGeometry>
        </mxCell>
        <mxCell id="PiVstQs3s-ZHOOb9sB3l-29" value="" style="endArrow=classic;startArrow=classic;html=1;exitX=0.75;exitY=0;exitDx=0;exitDy=0;entryX=-0.048;entryY=0.321;entryDx=0;entryDy=0;entryPerimeter=0;" parent="1" source="PiVstQs3s-ZHOOb9sB3l-5" target="PiVstQs3s-ZHOOb9sB3l-25" edge="1">
          <mxGeometry width="50" height="50" relative="1" as="geometry">
            <mxPoint x="725" y="81.70929162833488" as="sourcePoint"/>
            <mxPoint x="780" y="112.7764489420424" as="targetPoint"/>
          </mxGeometry>
        </mxCell>
        <mxCell id="PiVstQs3s-ZHOOb9sB3l-30" value="" style="endArrow=none;dashed=1;html=1;" parent="1" edge="1">
          <mxGeometry width="50" height="50" relative="1" as="geometry">
            <mxPoint x="800" y="200" as="sourcePoint"/>
            <mxPoint x="800" y="160" as="targetPoint"/>
          </mxGeometry>
        </mxCell>
        <mxCell id="PiVstQs3s-ZHOOb9sB3l-31" value="" style="endArrow=none;dashed=1;html=1;" parent="1" edge="1">
          <mxGeometry width="50" height="50" relative="1" as="geometry">
            <mxPoint x="80" y="270" as="sourcePoint"/>
            <mxPoint x="80" y="220" as="targetPoint"/>
          </mxGeometry>
        </mxCell>
        <mxCell id="PiVstQs3s-ZHOOb9sB3l-32" value="" style="points=[];aspect=fixed;html=1;align=center;shadow=0;dashed=0;image;image=img/lib/allied_telesis/computer_and_terminals/Personal_Computer_with_Server.svg;" parent="1" vertex="1">
          <mxGeometry x="370" y="450" width="62.400000000000006" height="62.400000000000006" as="geometry"/>
        </mxCell>
        <mxCell id="PiVstQs3s-ZHOOb9sB3l-33" value="" style="points=[];aspect=fixed;html=1;align=center;shadow=0;dashed=0;image;image=img/lib/allied_telesis/computer_and_terminals/Personal_Computer_with_Server.svg;" parent="1" vertex="1">
          <mxGeometry x="480" y="450" width="62.400000000000006" height="62.400000000000006" as="geometry"/>
        </mxCell>
        <mxCell id="PiVstQs3s-ZHOOb9sB3l-34" value="" style="points=[];aspect=fixed;html=1;align=center;shadow=0;dashed=0;image;image=img/lib/allied_telesis/computer_and_terminals/Personal_Computer_with_Server.svg;" parent="1" vertex="1">
          <mxGeometry x="630" y="450" width="62.400000000000006" height="62.400000000000006" as="geometry"/>
        </mxCell>
        <mxCell id="PiVstQs3s-ZHOOb9sB3l-35" value="" style="endArrow=classic;startArrow=classic;html=1;" parent="1" target="PiVstQs3s-ZHOOb9sB3l-3" edge="1">
          <mxGeometry width="50" height="50" relative="1" as="geometry">
            <mxPoint x="400" y="450" as="sourcePoint"/>
            <mxPoint x="450" y="400" as="targetPoint"/>
          </mxGeometry>
        </mxCell>
        <mxCell id="PiVstQs3s-ZHOOb9sB3l-36" value="" style="endArrow=classic;startArrow=classic;html=1;" parent="1" source="PiVstQs3s-ZHOOb9sB3l-33" target="PiVstQs3s-ZHOOb9sB3l-3" edge="1">
          <mxGeometry width="50" height="50" relative="1" as="geometry">
            <mxPoint x="490" y="480" as="sourcePoint"/>
            <mxPoint x="540" y="430" as="targetPoint"/>
          </mxGeometry>
        </mxCell>
        <mxCell id="PiVstQs3s-ZHOOb9sB3l-37" value="" style="endArrow=classic;startArrow=classic;html=1;" parent="1" source="PiVstQs3s-ZHOOb9sB3l-34" target="PiVstQs3s-ZHOOb9sB3l-3" edge="1">
          <mxGeometry width="50" height="50" relative="1" as="geometry">
            <mxPoint x="526.6382978723404" y="460" as="sourcePoint"/>
            <mxPoint x="535.7667302646325" y="407.62936909210816" as="targetPoint"/>
          </mxGeometry>
        </mxCell>
        <mxCell id="PiVstQs3s-ZHOOb9sB3l-39" value="" style="endArrow=none;dashed=1;html=1;" parent="1" edge="1">
          <mxGeometry width="50" height="50" relative="1" as="geometry">
            <mxPoint x="550" y="480" as="sourcePoint"/>
            <mxPoint x="620" y="480" as="targetPoint"/>
          </mxGeometry>
        </mxCell>
        <mxCell id="yJ5mYmlAtUPzOVKxgk20-1" value="Clients&lt;div&gt;&lt;br&gt;&lt;/div&gt;" style="text;html=1;strokeColor=none;fillColor=none;align=center;verticalAlign=middle;whiteSpace=wrap;rounded=0;rotation=-90;" vertex="1" parent="1">
          <mxGeometry x="10" y="168" width="40" height="20" as="geometry"/>
        </mxCell>
      </root>
    </mxGraphModel>
  </diagram>
</mxfile>
